<svg xmlns="http://www.w3.org/2000/svg">
    <symbol id="copy" fill="currentColor" viewBox="0 0 24 24">
        <rect width="24" height="24" opacity="0"/>
        <path d="M18 21h-6a3 3 0 0 1-3-3v-6a3 3 0 0 1 3-3h6a3 3 0 0 1 3 3v6a3 3 0 0 1-3 3zm-6-10a1 1 0 0 0-1 1v6a1 1 0 0 0 1 1h6a1 1 0 0 0 1-1v-6a1 1 0 0 0-1-1z"/>
        <path d="M9.73 15H5.67A2.68 2.68 0 0 1 3 12.33V5.67A2.68 2.68 0 0 1 5.67 3h6.66A2.68 2.68 0 0 1 15 5.67V9.4h-2V5.67a.67.67 0 0 0-.67-.67H5.67a.67.67 0 0 0-.67.67v6.66a.67.67 0 0 0 .67.67h4.06z"/>
    </symbol>
    <symbol id="search" fill="currentColor" viewBox="0 0 24 24">
        <rect width="24" height="24" opacity="0"/>
        <path d="M20.71 19.29l-3.4-3.39A7.92 7.92 0 0 0 19 11a8 8 0 1 0-8 8 7.92 7.92 0 0 0 4.9-1.69l3.39 3.4a1 1 0 0 0 1.42 0 1 1 0 0 0 0-1.42zM5 11a6 6 0 1 1 6 6 6 6 0 0 1-6-6z"/>
    </symbol>
</svg>
